<svg width="197" height="40" viewBox="0 0 197 40" fill="none" xmlns="http://www.w3.org/2000/svg">
<g clip-path="url(#clip0)">
<rect x="-6" y="19" width="40" height="2" fill="#393939"/>
</g>
<path d="M51.262 25.4912C51.262 24.5556 50.8956 23.8304 50.1629 23.3158C49.4421 22.8012 48.1988 22.3275 46.4329 21.8947C44.667 21.462 43.2676 20.9942 42.2345 20.4912C39.892 19.345 38.7208 17.7251 38.7208 15.6316C38.7208 13.9591 39.4475 12.6023 40.9011 11.5614C42.3666 10.5205 44.2466 10 46.541 10C48.8955 10 50.8175 10.5848 52.3071 11.7544C53.8087 12.924 54.5595 14.4211 54.5595 16.2456H51.226C51.226 15.0994 50.7995 14.2164 49.9466 13.5965C49.1057 12.9649 47.9585 12.6491 46.505 12.6491C45.1476 12.6491 44.0664 12.9123 43.2616 13.4386C42.4567 13.9532 42.0543 14.6784 42.0543 15.614C42.0543 16.3743 42.4207 17.0117 43.1534 17.5263C43.8982 18.0409 45.2076 18.5322 47.0816 19C48.9556 19.4678 50.4211 20 51.4782 20.5965C52.5354 21.1813 53.3222 21.8713 53.8387 22.6667C54.3553 23.462 54.6136 24.3918 54.6136 25.4561C54.6136 27.1754 53.8808 28.5322 52.4152 29.5263C50.9617 30.5088 49.0397 31 46.6491 31C44.1625 31 42.0963 30.4094 40.4506 29.2281C38.8169 28.0351 38 26.4912 38 24.5965H41.3515C41.3515 25.7895 41.814 26.7193 42.739 27.386C43.664 28.0526 44.9674 28.386 46.6491 28.386C48.1627 28.386 49.31 28.1228 50.0908 27.5965C50.8716 27.0585 51.262 26.3567 51.262 25.4912Z" fill="#454545"/>
<path d="M61.641 28.0702H72.1641V30.7193H58.3075V10.2807H61.641V28.0702Z" fill="#454545"/>
<path d="M88.0028 25.8246H78.6329L76.6508 30.7193H73.2452L81.8764 10.2807H84.8675L93.3725 30.7193H89.9849L88.0028 25.8246ZM79.7141 23.1754H86.9397L83.3539 14.2456L79.7141 23.1754Z" fill="#454545"/>
<path d="M111.013 12.9649H103.824V30.7193H100.49V12.9649H93.3365V10.2807H111.013V12.9649Z" fill="#454545"/>
<path d="M127.158 21.4912H117.572V28.0702H128.726V30.7193H114.239V10.2807H128.618V12.9649H117.572V18.8246H127.158V21.4912Z" fill="#454545"/>
<path d="M132.33 29.0175C132.33 28.4561 132.498 27.9883 132.834 27.614C133.183 27.2398 133.699 27.0526 134.384 27.0526C135.069 27.0526 135.585 27.2398 135.933 27.614C136.294 27.9883 136.474 28.4561 136.474 29.0175C136.474 29.5556 136.294 30.0058 135.933 30.3684C135.585 30.731 135.069 30.9123 134.384 30.9123C133.699 30.9123 133.183 30.731 132.834 30.3684C132.498 30.0058 132.33 29.5556 132.33 29.0175Z" fill="#454545"/>
<path d="M158.782 24.1053C158.541 26.2924 157.664 27.9883 156.151 29.193C154.637 30.3977 152.625 31 150.114 31C147.424 31 145.261 30.1404 143.628 28.4211C142.006 26.6901 141.195 24.3099 141.195 21.2807V19.6316C141.195 17.7135 141.561 16.0292 142.294 14.5789C143.039 13.117 144.102 11.9883 145.484 11.193C146.877 10.3977 148.487 10 150.313 10C152.763 10 154.727 10.6199 156.205 11.8596C157.694 13.0877 158.553 14.7953 158.782 16.9825H155.448C155.232 15.462 154.697 14.3626 153.844 13.6842C153.004 13.0058 151.826 12.6667 150.313 12.6667C148.475 12.6667 147.051 13.2632 146.042 14.4561C145.045 15.6374 144.541 17.3333 144.529 19.5439V21.4035C144.529 23.614 145.003 25.3275 145.952 26.5439C146.913 27.7485 148.301 28.3509 150.114 28.3509C151.736 28.3509 152.967 28.0292 153.808 27.386C154.661 26.731 155.208 25.6374 155.448 24.1053H158.782Z" fill="#454545"/>
<path d="M174.62 25.4912C174.62 24.5556 174.254 23.8304 173.521 23.3158C172.8 22.8012 171.557 22.3275 169.791 21.8947C168.025 21.462 166.626 20.9942 165.593 20.4912C163.25 19.345 162.079 17.7251 162.079 15.6316C162.079 13.9591 162.806 12.6023 164.259 11.5614C165.725 10.5205 167.605 10 169.899 10C172.254 10 174.176 10.5848 175.665 11.7544C177.167 12.924 177.918 14.4211 177.918 16.2456H174.584C174.584 15.0994 174.158 14.2164 173.305 13.5965C172.464 12.9649 171.317 12.6491 169.863 12.6491C168.506 12.6491 167.425 12.9123 166.62 13.4386C165.815 13.9532 165.413 14.6784 165.413 15.614C165.413 16.3743 165.779 17.0117 166.512 17.5263C167.257 18.0409 168.566 18.5322 170.44 19C172.314 19.4678 173.779 20 174.837 20.5965C175.894 21.1813 176.681 21.8713 177.197 22.6667C177.714 23.462 177.972 24.3918 177.972 25.4561C177.972 27.1754 177.239 28.5322 175.774 29.5263C174.32 30.5088 172.398 31 170.007 31C167.521 31 165.455 30.4094 163.809 29.2281C162.175 28.0351 161.358 26.4912 161.358 24.5965H164.71C164.71 25.7895 165.172 26.7193 166.097 27.386C167.022 28.0526 168.326 28.386 170.007 28.386C171.521 28.386 172.668 28.1228 173.449 27.5965C174.23 27.0585 174.62 26.3567 174.62 25.4912Z" fill="#454545"/>
<path d="M193.648 25.4912C193.648 24.5556 193.282 23.8304 192.549 23.3158C191.829 22.8012 190.585 22.3275 188.819 21.8947C187.053 21.462 185.654 20.9942 184.621 20.4912C182.278 19.345 181.107 17.7251 181.107 15.6316C181.107 13.9591 181.834 12.6023 183.288 11.5614C184.753 10.5205 186.633 10 188.927 10C191.282 10 193.204 10.5848 194.694 11.7544C196.195 12.924 196.946 14.4211 196.946 16.2456H193.612C193.612 15.0994 193.186 14.2164 192.333 13.5965C191.492 12.9649 190.345 12.6491 188.891 12.6491C187.534 12.6491 186.453 12.9123 185.648 13.4386C184.843 13.9532 184.441 14.6784 184.441 15.614C184.441 16.3743 184.807 17.0117 185.54 17.5263C186.285 18.0409 187.594 18.5322 189.468 19C191.342 19.4678 192.808 20 193.865 20.5965C194.922 21.1813 195.709 21.8713 196.225 22.6667C196.742 23.462 197 24.3918 197 25.4561C197 27.1754 196.267 28.5322 194.802 29.5263C193.348 30.5088 191.426 31 189.036 31C186.549 31 184.483 30.4094 182.837 29.2281C181.203 28.0351 180.386 26.4912 180.386 24.5965H183.738C183.738 25.7895 184.2 26.7193 185.125 27.386C186.05 28.0526 187.354 28.386 189.036 28.386C190.549 28.386 191.696 28.1228 192.477 27.5965C193.258 27.0585 193.648 26.3567 193.648 25.4912Z" fill="#454545"/>
<defs>
<clipPath id="clip0">
<path d="M0 6H28V34H0V6Z" fill="white"/>
</clipPath>
</defs>
</svg>
